<svg width="35" height="35" viewBox="0 0 35 35" fill="none" xmlns="http://www.w3.org/2000/svg">
<path fill-rule="evenodd" clip-rule="evenodd" d="M17.5 29.1668C14.2844 28.4668 4.375 22.9835 4.375 13.1252C4.375 11.5948 4.85652 10.1032 5.75136 8.86165C6.6462 7.62013 7.90898 6.69163 9.36084 6.20768C10.8127 5.72373 12.38 5.70885 13.8408 6.16517C15.3016 6.62148 16.5818 7.52585 17.5 8.75016C18.4182 7.52585 19.6984 6.62148 21.1592 6.16517C22.62 5.70885 24.1873 5.72373 25.6392 6.20768C27.091 6.69163 28.3538 7.62013 29.2486 8.86165C30.1435 10.1032 30.625 11.5948 30.625 13.1252C30.625 22.9835 20.7156 28.4668 17.5 29.1668ZM17.5 26.2502C22.05 24.8939 27.7083 19.2429 27.7083 13.1252C27.7083 11.9648 27.2474 10.852 26.4269 10.0316C25.6065 9.2111 24.4937 8.75016 23.3333 8.75016C21.4302 8.75016 19.4862 9.96495 17.5 12.396C15.5138 9.96495 13.5698 8.75016 11.6667 8.75016C10.5063 8.75016 9.39355 9.2111 8.57307 10.0316C7.7526 10.852 7.29167 11.9648 7.29167 13.1252C7.29167 19.2429 12.95 24.8939 17.5 26.2502Z" fill="#6891A7"/>
</svg>
