<svg width="25" height="25" viewBox="0 0 25 25" fill="none" xmlns="http://www.w3.org/2000/svg">
<path d="M2.08329 3.12516V2.0835C1.80703 2.0835 1.54207 2.19324 1.34672 2.38859C1.15137 2.58394 1.04163 2.8489 1.04163 3.12516H2.08329ZM13.5416 3.12516H14.5833C14.5833 2.8489 14.4735 2.58394 14.2782 2.38859C14.0828 2.19324 13.8179 2.0835 13.5416 2.0835V3.12516ZM13.5416 9.37516V8.3335C13.2654 8.3335 13.0004 8.44324 12.8051 8.63859C12.6097 8.83394 12.5 9.0989 12.5 9.37516H13.5416ZM2.08329 4.16683H13.5416V2.0835H2.08329V4.16683ZM12.5 3.12516V19.7918H14.5833V3.12516H12.5ZM3.12496 17.7085V3.12516H1.04163V17.7085H3.12496ZM13.5416 10.4168H18.75V8.3335H13.5416V10.4168ZM21.875 13.5418V17.7085H23.9583V13.5418H21.875ZM14.5833 19.7918V9.37516H12.5V19.7918H14.5833ZM19.4864 20.5283C19.2911 20.7236 19.0262 20.8333 18.75 20.8333C18.4737 20.8333 18.2088 20.7236 18.0135 20.5283L16.5406 22.0012C17.1266 22.5871 17.9213 22.9162 18.75 22.9162C19.5786 22.9162 20.3733 22.5871 20.9593 22.0012L19.4864 20.5283ZM18.0135 19.0554C18.2088 18.8601 18.4737 18.7504 18.75 18.7504C19.0262 18.7504 19.2911 18.8601 19.4864 19.0554L20.9593 17.5825C20.3733 16.9966 19.5786 16.6675 18.75 16.6675C17.9213 16.6675 17.1266 16.9966 16.5406 17.5825L18.0135 19.0554ZM6.98642 20.5283C6.79108 20.7236 6.52617 20.8333 6.24996 20.8333C5.97375 20.8333 5.70884 20.7236 5.5135 20.5283L4.04058 22.0012C4.62661 22.5871 5.42132 22.9162 6.24996 22.9162C7.0786 22.9162 7.87331 22.5871 8.45933 22.0012L6.98642 20.5283ZM5.5135 19.0554C5.70884 18.8601 5.97375 18.7504 6.24996 18.7504C6.52617 18.7504 6.79108 18.8601 6.98642 19.0554L8.45933 17.5825C7.87331 16.9966 7.0786 16.6675 6.24996 16.6675C5.42132 16.6675 4.62661 16.9966 4.04058 17.5825L5.5135 19.0554ZM19.4864 19.0554C19.6906 19.2585 19.7916 19.5241 19.7916 19.7918H21.875C21.875 18.9939 21.5697 18.1918 20.9593 17.5825L19.4864 19.0554ZM19.7916 19.7918C19.7919 19.9287 19.7651 20.0642 19.7127 20.1906C19.6603 20.317 19.5834 20.4318 19.4864 20.5283L20.9593 22.0012C21.2498 21.7113 21.4802 21.3669 21.6373 20.9878C21.7945 20.6086 21.8752 20.2022 21.875 19.7918H19.7916ZM16.6666 18.7502H13.5416V20.8335H16.6666V18.7502ZM18.0135 20.5283C17.9165 20.4318 17.8396 20.317 17.7872 20.1906C17.7348 20.0642 17.708 19.9287 17.7083 19.7918H15.625C15.625 20.5897 15.9302 21.3918 16.5406 22.0012L18.0135 20.5283ZM17.7083 19.7918C17.7077 19.655 17.7345 19.5194 17.7869 19.3929C17.8393 19.2665 17.9163 19.1517 18.0135 19.0554L16.5406 17.5825C16.2501 17.8724 16.0197 18.2168 15.8626 18.5959C15.7055 18.975 15.6247 19.3814 15.625 19.7918H17.7083ZM5.5135 20.5283C5.41649 20.4318 5.33956 20.317 5.28718 20.1906C5.23479 20.0642 5.20798 19.9287 5.20829 19.7918H3.12496C3.12496 20.5897 3.43017 21.3918 4.04058 22.0012L5.5135 20.5283ZM5.20829 19.7918C5.20775 19.655 5.23445 19.5194 5.28685 19.3929C5.33926 19.2665 5.4163 19.1517 5.5135 19.0554L4.04058 17.5825C3.7501 17.8724 3.5197 18.2168 3.36258 18.5959C3.20545 18.975 3.12471 19.3814 3.12496 19.7918H5.20829ZM13.5416 18.7502H8.33329V20.8335H13.5416V18.7502ZM6.98642 19.0554C7.19058 19.2585 7.29163 19.5241 7.29163 19.7918H9.37496C9.37496 18.9939 9.06975 18.1918 8.45933 17.5825L6.98642 19.0554ZM7.29163 19.7918C7.29194 19.9287 7.26513 20.0642 7.21274 20.1906C7.16035 20.317 7.08343 20.4318 6.98642 20.5283L8.45933 22.0012C8.74981 21.7113 8.98022 21.3669 9.13734 20.9878C9.29446 20.6086 9.37521 20.2022 9.37496 19.7918H7.29163ZM21.875 17.7085C21.875 17.9848 21.7652 18.2497 21.5699 18.4451C21.3745 18.6404 21.1096 18.7502 20.8333 18.7502V20.8335C21.6621 20.8335 22.4569 20.5043 23.043 19.9182C23.629 19.3322 23.9583 18.5373 23.9583 17.7085H21.875ZM18.75 10.4168C19.5788 10.4168 20.3736 10.7461 20.9597 11.3321C21.5457 11.9182 21.875 12.713 21.875 13.5418H23.9583C23.9583 12.8579 23.8236 12.1806 23.5618 11.5487C23.3001 10.9168 22.9164 10.3426 22.4328 9.85898C21.9492 9.37534 21.375 8.9917 20.7431 8.72996C20.1112 8.46821 19.4339 8.3335 18.75 8.3335V10.4168ZM1.04163 17.7085C1.04163 18.5373 1.37087 19.3322 1.95692 19.9182C2.54297 20.5043 3.33782 20.8335 4.16663 20.8335V18.7502C3.89036 18.7502 3.62541 18.6404 3.43006 18.4451C3.23471 18.2497 3.12496 17.9848 3.12496 17.7085H1.04163Z" fill="#6891A7"/>
</svg>
