<svg width="35" height="35" viewBox="0 0 35 35" fill="none" xmlns="http://www.w3.org/2000/svg">
<g clip-path="url(#clip0_736_629)">
<path d="M29.1667 7.2915C29.5534 7.2915 29.9244 7.44515 30.1979 7.71864C30.4714 7.99213 30.625 8.36306 30.625 8.74984C30.625 9.13661 30.4714 9.50754 30.1979 9.78103C29.9244 10.0545 29.5534 10.2082 29.1667 10.2082H27.7083L27.704 10.3117L26.3433 29.3736C26.291 30.1094 25.9617 30.7981 25.4218 31.3009C24.882 31.8037 24.1717 32.0832 23.434 32.0832H11.5646C10.8269 32.0832 10.1166 31.8037 9.57671 31.3009C9.03686 30.7981 8.70759 30.1094 8.65521 29.3736L7.29458 10.3132C7.29237 10.2782 7.2914 10.2432 7.29167 10.2082H5.83333C5.44656 10.2082 5.07563 10.0545 4.80214 9.78103C4.52865 9.50754 4.375 9.13661 4.375 8.74984C4.375 8.36306 4.52865 7.99213 4.80214 7.71864C5.07563 7.44515 5.44656 7.2915 5.83333 7.2915H29.1667ZM24.7873 10.2082H10.2127L11.566 29.1665H23.434L24.7873 10.2082ZM20.4167 2.9165C20.8034 2.9165 21.1744 3.07015 21.4479 3.34364C21.7214 3.61713 21.875 3.98806 21.875 4.37484C21.875 4.76161 21.7214 5.13254 21.4479 5.40603C21.1744 5.67953 20.8034 5.83317 20.4167 5.83317H14.5833C14.1966 5.83317 13.8256 5.67953 13.5521 5.40603C13.2786 5.13254 13.125 4.76161 13.125 4.37484C13.125 3.98806 13.2786 3.61713 13.5521 3.34364C13.8256 3.07015 14.1966 2.9165 14.5833 2.9165H20.4167Z" fill="#6891A7"/>
</g>
<defs>
<clipPath id="clip0_736_629">
<rect width="35" height="35" fill="white"/>
</clipPath>
</defs>
</svg>
