<svg width="35" height="35" viewBox="0 0 35 35" fill="none" xmlns="http://www.w3.org/2000/svg">
<g clip-path="url(#clip0_2785_639)">
<path d="M34.7149 9.70694C34.6146 9.56445 34.4815 9.44816 34.3269 9.36785C34.1723 9.28753 34.0006 9.24555 33.8263 9.24544H10.6137L8.8566 3.18607C8.16754 0.800058 6.53016 0.54248 5.8586 0.54248H1.17353C0.573027 0.54248 0.0874023 1.02865 0.0874023 1.62857C0.0874023 2.22849 0.573574 2.71463 1.17349 2.71463H5.85802C6.00622 2.71463 6.45849 2.71463 6.76696 3.78049L12.8116 25.9951C12.9428 26.4638 13.3699 26.7875 13.8572 26.7875H28.6217C29.08 26.7875 29.489 26.5004 29.6438 26.0689L34.8479 10.699C34.9676 10.3659 34.9179 9.99514 34.715 9.70694H34.7149ZM27.8573 24.6159H14.6815L11.2242 11.4182H32.2821L27.8573 24.6159ZM25.7032 28.9887C24.1928 28.9887 22.9689 30.2126 22.9689 31.7231C22.9689 33.2335 24.1928 34.4575 25.7032 34.4575C27.2137 34.4575 28.4376 33.2335 28.4376 31.7231C28.4376 30.2126 27.2137 28.9887 25.7032 28.9887ZM15.8595 28.9887C14.349 28.9887 13.1251 30.2126 13.1251 31.7231C13.1251 33.2335 14.349 34.4575 15.8595 34.4575C17.37 34.4575 18.5939 33.2335 18.5939 31.7231C18.5939 30.2126 17.37 28.9887 15.8595 28.9887Z" fill="#6891A7"/>
</g>
<defs>
<clipPath id="clip0_2785_639">
<rect width="35" height="35" fill="white"/>
</clipPath>
</defs>
</svg>
